<?xml version="1.0" encoding="utf-8"?>
<!-- Generator: Adobe Illustrator 19.1.0, SVG Export Plug-In . SVG Version: 6.00 Build 0)  -->
<svg version="1.1" id="Layer_1" xmlns="http://www.w3.org/2000/svg" xmlns:xlink="http://www.w3.org/1999/xlink" x="0px" y="0px"
	 viewBox="0 0 180.2 122.3" style="enable-background:new 0 0 180.2 122.3;" xml:space="preserve">
<style type="text/css">
	.st0{fill:#231F20;}
</style>
<g>
	<path class="st0" d="M87.4,32.8h7c4.7,0,7.8,0.2,9.3,0.5c1.5,0.4,2.6,1.3,3.2,2.8c0.6,1.5,0.4,3.8-0.6,7.1c-0.9,3-1.9,4.9-2.9,6
		c-1,1-2.7,1.6-4.9,1.8c1.8,0.5,2.9,1.1,3.3,1.9c0.4,0.8,0.6,1.6,0.6,2.2c0,0.7-0.5,2.6-1.5,5.6l-3.1,10h-9.2l3.8-12.6
		c0.6-2,0.8-3.3,0.7-3.8s-0.9-0.7-2.3-0.7l-5.2,17.1h-9.9L87.4,32.8z M95.3,39.3l-2.6,8.4c1.1,0,1.9-0.2,2.5-0.5
		c0.5-0.3,1.1-1.3,1.6-3l0.6-2.1c0.4-1.2,0.4-2,0.1-2.4C97.2,39.5,96.5,39.3,95.3,39.3z"/>
	<path class="st0" d="M126.5,55.7h-12.3l-2.1,6.7c-0.4,1.4-0.6,2.3-0.5,2.7s0.4,0.6,1,0.6c0.7,0,1.3-0.3,1.7-0.8s0.8-1.6,1.3-3.1
		l1.3-4.1h9l-0.7,2.3c-0.6,1.9-1.2,3.4-1.7,4.4c-0.6,1-1.5,2.1-2.7,3.3s-2.6,2.1-4.2,2.6c-1.5,0.6-3.4,0.9-5.4,0.9
		c-2,0-3.7-0.3-5-0.9c-1.4-0.6-2.3-1.4-2.8-2.4c-0.5-1-0.8-2.1-0.8-3.3s0.4-3,1.1-5.3l2.8-9.1c0.8-2.7,1.9-4.9,3.1-6.4
		c1.2-1.6,2.8-2.8,4.7-3.6c1.9-0.8,4-1.3,6.1-1.3c2.7,0,4.7,0.5,6.1,1.5c1.4,1,2.2,2.3,2.4,4c0.2,1.7-0.2,4-1.1,7L126.5,55.7z
		 M118.6,50.7l0.7-2.3c0.5-1.6,0.7-2.6,0.7-3.1c0-0.5-0.3-0.7-0.8-0.7c-0.7,0-1.1,0.2-1.4,0.6s-0.7,1.5-1.2,3.2l-0.7,2.3H118.6z"/>
	<path class="st0" d="M150.1,55.7h-12.3l-2.1,6.7c-0.4,1.4-0.6,2.3-0.5,2.7s0.4,0.6,1,0.6c0.7,0,1.3-0.3,1.7-0.8s0.8-1.6,1.3-3.1
		l1.3-4.1h9l-0.7,2.3c-0.6,1.9-1.2,3.4-1.7,4.4c-0.6,1-1.5,2.1-2.7,3.3s-2.6,2.1-4.2,2.6c-1.5,0.6-3.4,0.9-5.4,0.9
		c-2,0-3.7-0.3-5-0.9c-1.4-0.6-2.3-1.4-2.8-2.4c-0.5-1-0.8-2.1-0.8-3.3s0.4-3,1.1-5.3l2.8-9.1c0.8-2.7,1.9-4.9,3.1-6.4
		c1.2-1.6,2.8-2.8,4.7-3.6c1.9-0.8,4-1.3,6.1-1.3c2.7,0,4.7,0.5,6.1,1.5c1.4,1,2.2,2.3,2.4,4c0.2,1.7-0.2,4-1.1,7L150.1,55.7z
		 M142.1,50.7l0.7-2.3c0.5-1.6,0.7-2.6,0.7-3.1c0-0.5-0.3-0.7-0.8-0.7c-0.7,0-1.1,0.2-1.4,0.6s-0.7,1.5-1.2,3.2l-0.7,2.3H142.1z"/>
	<path class="st0" d="M169,32.8l-11.6,37.9h-9.8l11.6-37.9H169z"/>
	<path class="st0" d="M75.3,73.1h9.8c3.1,0,5.4,0.2,6.8,0.7c1.5,0.5,2.4,1.5,3,2.9s0.3,3.9-0.7,7.1c-0.7,2.2-1.5,3.8-2.5,4.6
		c-1,0.9-2.5,1.5-4.7,2c2.1,0.5,3.4,1.4,3.9,2.6c0.4,1.2,0.3,3-0.5,5.5l-1.1,3.5c-0.8,2.6-1.7,4.5-2.6,5.7c-1,1.2-2.2,2.1-3.6,2.5
		c-1.4,0.5-4.1,0.7-8.1,0.7H63.7L75.3,73.1z M78.8,93.9l-3.2,10.6c1.4,0,2.4-0.3,2.9-0.7s1-1.4,1.5-2.9l1.1-3.5
		c0.5-1.6,0.6-2.6,0.4-3C81.1,94.2,80.3,94,78.8,93.9z M83.2,79.6L80.6,88c0.4,0,0.8,0,1,0c1,0,1.7-0.2,2.1-0.7s1-1.8,1.6-4.1
		c0.4-1.2,0.5-2,0.4-2.5s-0.3-0.8-0.6-0.9S84.2,79.6,83.2,79.6z"/>
	<path class="st0" d="M103.3,92h-8.9l0.6-2.1c0.7-2.4,1.6-4.3,2.5-5.6c1-1.3,2.4-2.5,4.4-3.5c2-1,4.3-1.5,7-1.5
		c3.2,0,5.4,0.6,6.7,1.7s1.8,2.5,1.7,4.2s-1,5-2.6,10.2l-4.8,15.6h-9.2l0.8-2.8c-0.9,1.1-1.9,1.9-3,2.5c-1.1,0.6-2.3,0.8-3.5,0.8
		c-1.7,0-3-0.5-4.1-1.4c-1.1-0.9-1.2-3-0.2-6.1l0.8-2.6c0.7-2.3,1.6-3.9,2.6-4.8c1-0.8,3.1-1.8,6.4-3c3.5-1.2,5.4-2,5.7-2.5
		c0.3-0.4,0.7-1.3,1.1-2.6c0.5-1.6,0.7-2.7,0.6-3.2s-0.4-0.7-1-0.7c-0.6,0-1.1,0.2-1.4,0.6c-0.3,0.4-0.7,1.5-1.2,3.2L103.3,92z
		 M105,96.3c-1.9,1.1-3,2-3.5,2.8c-0.5,0.8-0.9,1.8-1.4,3.2c-0.5,1.6-0.7,2.6-0.6,3.1s0.4,0.7,1,0.7c0.6,0,1-0.2,1.3-0.6
		c0.3-0.4,0.7-1.3,1.2-2.9L105,96.3z"/>
	<path class="st0" d="M132.4,80l-9.5,31.1h-9.8l9.5-31.1H132.4z M134.5,73.1l-1.5,4.9h-9.7l1.5-4.9H134.5z"/>
	<path class="st0" d="M147.1,75.8l-1.5,4.9h2.6l-1.5,4.9h-2.6l-5.1,16.6c-0.6,2-0.9,3.2-0.7,3.4c0.1,0.2,1,0.4,2.5,0.4l-1.5,5h-3.8
		c-2.2,0-3.7-0.1-4.5-0.3c-0.9-0.2-1.6-0.6-2.1-1.2c-0.5-0.6-0.7-1.4-0.6-2.2c0.1-0.8,0.6-2.8,1.5-5.9l4.8-15.8h-2l1.5-4.9h2
		l1.5-4.9H147.1z"/>
	<path class="st0" d="M97.7,14c0.4,1,0.8,2,1.2,3.1c1.6,5.1-3.5,12.3-10,10.7c-3.7-0.9-4-0.8-5.3,2.9c-3.4,9.7-6.6,19.4-9.9,29.1
		c-3.3,9.8-6.3,19.7-11.8,28.7c-4.9,8-10.5,15.3-18.9,19.9c-14.8,8.1-31.5-0.8-31.7-16.8c-0.1-6.4,2.4-12.1,6-17.3
		c6.1-8.8,12.4-17.5,18.5-26.3c1.8-2.6,3.4-5.3,5.1-7.9c0.2,0.1,0.4,0.1,0.6,0.2c-2.8,12.4-5.6,24.8-8.4,37.2c-0.2,0-0.4,0-0.6,0
		c-1.3-2.9-2.6-5.7-4-8.6c-0.3,0-0.6,0.1-1,0.1c-4.2,6-9,11.8-9.1,19.6c0,10.2,10.1,17.1,19.7,13.3c8.5-3.3,14.3-9.9,18.5-17.7
		c8-14.6,12.7-30.5,18.3-45.9c2.4-6.7,4.7-13.4,7.6-19.9c3-6.9,6-8.1,12.8-6.3C96.1,12.7,96.9,13.3,97.7,14z M88.7,22.2
		c1.6,1,3.2,1,4.5-0.6c1.3-1.5,1.3-3.2-0.2-4.5c-1.5-1.3-3.1-1.1-4.4,0.5C87.2,19.2,87.5,20.7,88.7,22.2z"/>
</g>
</svg>
