<?xml version="1.0" encoding="utf-8"?>
<!-- Generator: Adobe Illustrator 19.1.0, SVG Export Plug-In . SVG Version: 6.00 Build 0)  -->
<svg version="1.1" id="Layer_1" xmlns="http://www.w3.org/2000/svg" xmlns:xlink="http://www.w3.org/1999/xlink" x="0px" y="0px"
	 viewBox="-281 267.9 227.7 78.1" style="enable-background:new -281 267.9 227.7 78.1;" xml:space="preserve">
<style type="text/css">
	.st0{fill:#F5F5F5;}
	.st1{fill:#838C52;}
</style>
<g>
	<path class="st0" d="M-224.5,291.2h7.1c4.7,0,7.9,0.2,9.5,0.5c1.6,0.4,2.7,1.3,3.3,2.8s0.4,3.9-0.6,7.2c-0.9,3-1.9,5-3,6.1
		c-1.1,1-2.7,1.7-5,1.9c1.8,0.5,3,1.2,3.4,2s0.6,1.6,0.6,2.3c0,0.7-0.5,2.6-1.5,5.7l-3.1,10.2h-9.3l3.9-12.9
		c0.6-2.1,0.9-3.4,0.7-3.8c-0.2-0.5-1-0.7-2.3-0.7l-5.3,17.4h-10.2L-224.5,291.2z M-216.4,297.8l-2.7,8.6c1.1,0,2-0.2,2.5-0.5
		s1.1-1.3,1.6-3l0.6-2.1c0.4-1.2,0.4-2,0.1-2.4C-214.5,298-215.3,297.8-216.4,297.8z"/>
	<path class="st0" d="M-184.7,314.6h-12.5l-2.1,6.9c-0.4,1.4-0.6,2.4-0.5,2.8s0.4,0.6,1,0.6c0.7,0,1.3-0.3,1.7-0.8s0.9-1.6,1.3-3.2
		l1.3-4.2h9.2l-0.7,2.3c-0.6,2-1.2,3.5-1.7,4.5c-0.6,1.1-1.5,2.2-2.8,3.4c-1.3,1.2-2.7,2.1-4.3,2.7s-3.4,0.9-5.5,0.9
		c-2,0-3.7-0.3-5.1-0.9c-1.4-0.6-2.3-1.4-2.9-2.4s-0.8-2.2-0.8-3.4c0-1.2,0.4-3,1.1-5.4l2.8-9.2c0.8-2.8,1.9-5,3.1-6.6
		s2.8-2.8,4.8-3.7c2-0.9,4.1-1.3,6.3-1.3c2.7,0,4.8,0.5,6.2,1.5s2.3,2.4,2.5,4.1s-0.2,4.1-1.1,7.2L-184.7,314.6z M-192.8,309.4
		l0.7-2.3c0.5-1.6,0.7-2.7,0.7-3.2s-0.3-0.7-0.9-0.7c-0.7,0-1.1,0.2-1.4,0.6s-0.7,1.5-1.2,3.3l-0.7,2.3
		C-195.6,309.4-192.8,309.4-192.8,309.4z"/>
	<path class="st0" d="M-160.6,314.6h-12.5l-2.1,6.9c-0.4,1.4-0.6,2.4-0.5,2.8s0.4,0.6,1,0.6c0.7,0,1.3-0.3,1.7-0.8s0.9-1.6,1.3-3.2
		l1.3-4.2h9.2l-0.7,2.3c-0.6,2-1.2,3.5-1.7,4.5c-0.6,1.1-1.5,2.2-2.8,3.4c-1.3,1.2-2.7,2.1-4.3,2.7s-3.4,0.9-5.5,0.9
		c-2,0-3.7-0.3-5.1-0.9c-1.4-0.6-2.3-1.4-2.9-2.4c-0.6-1-0.8-2.2-0.8-3.4c0-1.2,0.4-3,1.1-5.4l2.8-9.2c0.8-2.8,1.9-5,3.1-6.6
		c1.2-1.6,2.8-2.8,4.8-3.7c2-0.9,4.1-1.3,6.3-1.3c2.7,0,4.8,0.5,6.2,1.5s2.3,2.4,2.5,4.1s-0.2,4.1-1.1,7.2L-160.6,314.6z
		 M-168.7,309.4l0.7-2.3c0.5-1.6,0.7-2.7,0.7-3.2s-0.3-0.7-0.9-0.7c-0.7,0-1.1,0.2-1.4,0.6c-0.3,0.4-0.7,1.5-1.2,3.3l-0.7,2.3
		C-171.5,309.4-168.7,309.4-168.7,309.4z"/>
	<path class="st0" d="M-141.4,291.2l-11.8,38.7h-9.9l11.8-38.7H-141.4z"/>
	<path class="st1" d="M-137.6,291.2h10c3.2,0,5.5,0.2,7,0.7s2.5,1.5,3,3s0.3,3.9-0.7,7.3c-0.7,2.3-1.5,3.8-2.5,4.7
		c-1,0.9-2.6,1.6-4.8,2.1c2.2,0.5,3.5,1.4,3.9,2.6c0.5,1.2,0.3,3.1-0.5,5.6l-1.1,3.6c-0.8,2.6-1.7,4.6-2.7,5.8
		c-1,1.3-2.2,2.1-3.6,2.6c-1.4,0.5-4.2,0.7-8.2,0.7h-11.6L-137.6,291.2z M-134,312.4l-3.3,10.8c1.4,0,2.4-0.3,2.9-0.7
		c0.5-0.4,1-1.4,1.5-2.9l1.1-3.6c0.5-1.7,0.6-2.7,0.4-3C-131.7,312.7-132.5,312.5-134,312.4z M-129.6,297.8l-2.6,8.6
		c0.4,0,0.8,0,1,0c1,0,1.7-0.2,2.1-0.7c0.4-0.5,1-1.9,1.7-4.2c0.4-1.2,0.5-2.1,0.4-2.5s-0.3-0.8-0.6-0.9
		C-127.9,297.9-128.5,297.8-129.6,297.8z"/>
	<path class="st1" d="M-109.1,310.4h-9l0.6-2.1c0.7-2.5,1.6-4.3,2.6-5.7c1-1.3,2.5-2.5,4.5-3.5s4.4-1.5,7.1-1.5
		c3.3,0,5.6,0.6,6.9,1.7c1.3,1.2,1.9,2.6,1.7,4.3c-0.2,1.7-1.1,5.1-2.7,10.4l-4.9,15.9h-9.4l0.9-2.8c-0.9,1.1-2,2-3.1,2.6
		s-2.3,0.8-3.6,0.8c-1.7,0-3.1-0.5-4.2-1.4s-1.2-3-0.2-6.2l0.8-2.7c0.7-2.4,1.6-4,2.6-4.9s3.2-1.9,6.5-3c3.5-1.2,5.5-2.1,5.9-2.5
		s0.7-1.3,1.1-2.6c0.5-1.7,0.7-2.7,0.6-3.2s-0.4-0.8-1-0.8c-0.7,0-1.1,0.2-1.4,0.6s-0.7,1.5-1.2,3.3L-109.1,310.4z M-107.4,314.8
		c-1.9,1.1-3.1,2.1-3.6,2.8c-0.5,0.8-0.9,1.9-1.4,3.3c-0.5,1.6-0.7,2.7-0.6,3.2s0.4,0.7,1.1,0.7c0.6,0,1.1-0.2,1.4-0.6
		s0.7-1.4,1.2-3L-107.4,314.8z"/>
	<path class="st1" d="M-79.4,298.1l-9.7,31.7H-99l9.7-31.7C-89.3,298.1-79.4,298.1-79.4,298.1z M-77.2,291.2l-1.5,5h-9.9l1.5-5
		H-77.2z"/>
	<path class="st1" d="M-64.4,293.9l-1.5,5h2.6l-1.5,5h-2.6l-5.2,17c-0.6,2.1-0.9,3.3-0.7,3.5c0.1,0.2,1,0.4,2.6,0.4l-1.6,5.1h-3.9
		c-2.2,0-3.7-0.1-4.6-0.3c-0.9-0.2-1.6-0.6-2.1-1.3s-0.7-1.4-0.6-2.3s0.6-2.9,1.6-6l4.9-16.1h-2.1l1.5-5h2.1l1.5-5
		C-74,293.9-64.4,293.9-64.4,293.9z"/>
	<path class="st0" d="M-217.9,276.2c0.2,0.6,0.5,1.2,0.7,1.8c1,3-1.8,7-5.6,6c-2.2-0.6-2.4-0.5-3,1.6c-1.8,5.5-3.5,11.1-5.2,16.6
		c-1.7,5.6-3.3,11.2-6.4,16.3c-2.7,4.4-5.9,8.6-10.7,11.1c-8.5,4.4-18.4-1-18.8-10.2c-0.2-3.7,1.2-6.9,3.2-9.9
		c3.4-5,6.9-9.9,10.3-14.8c1-1.5,1.9-3,2.8-4.5c0.1,0,0.2,0.1,0.4,0.1c-1.4,7.1-2.8,14.2-4.2,21.3c-0.1,0-0.2,0-0.4,0
		c-0.8-1.7-1.6-3.3-2.4-5c-0.2,0-0.4,0-0.6,0.1c-2.4,3.4-5.1,6.6-4.9,11.1c0.2,5.9,6.2,10,11.7,8c4.9-1.8,8.1-5.4,10.5-9.9
		c4.4-8.3,6.8-17.3,9.8-26.1c1.3-3.8,2.5-7.6,4-11.3c1.6-3.9,3.4-4.6,7.3-3.4C-218.8,275.4-218.3,275.8-217.9,276.2z M-223,280.7
		c0.9,0.6,1.9,0.6,2.6-0.3c0.7-0.9,0.7-1.8-0.2-2.6c-0.9-0.8-1.8-0.7-2.6,0.2C-223.9,279-223.7,279.9-223,280.7z"/>
</g>
</svg>
