<?xml version="1.0" encoding="utf-8"?>
<!-- Generator: Adobe Illustrator 19.1.0, SVG Export Plug-In . SVG Version: 6.00 Build 0)  -->
<svg version="1.1" id="Layer_1" xmlns="http://www.w3.org/2000/svg" xmlns:xlink="http://www.w3.org/1999/xlink" x="0px" y="0px"
	 viewBox="-281 267.9 227.7 78.1" style="enable-background:new -281 267.9 227.7 78.1;" xml:space="preserve">
<style type="text/css">
	.st0{fill:#3E4044;}
	.st1{fill:#838C52;stroke:#3E4044;stroke-width:0.75;stroke-miterlimit:10;}
</style>
<g>
	<path class="st0" d="M-226.4,295.9h7.1c4.7,0,7.9,0.2,9.5,0.5c1.6,0.4,2.7,1.3,3.3,2.8s0.4,3.9-0.6,7.2c-0.9,3-1.9,5-3,6.1
		c-1.1,1-2.7,1.7-5,1.9c1.8,0.5,3,1.2,3.4,2s0.6,1.6,0.6,2.3c0,0.7-0.5,2.6-1.5,5.7l-3.1,10.2h-9.3l3.9-12.9
		c0.6-2.1,0.9-3.4,0.7-3.8c-0.2-0.5-1-0.7-2.3-0.7l-5.3,17.4h-10.2L-226.4,295.9z M-218.3,302.5l-2.7,8.6c1.1,0,2-0.2,2.5-0.5
		c0.5-0.3,1.1-1.3,1.6-3l0.6-2.1c0.4-1.2,0.4-2,0.1-2.4C-216.4,302.7-217.2,302.5-218.3,302.5z"/>
	<path class="st0" d="M-186.6,319.3h-12.5l-2.1,6.9c-0.4,1.4-0.6,2.4-0.5,2.8s0.4,0.6,1,0.6c0.7,0,1.3-0.3,1.7-0.8s0.9-1.6,1.3-3.2
		l1.3-4.2h9.2l-0.7,2.3c-0.6,2-1.2,3.5-1.7,4.5c-0.6,1.1-1.5,2.2-2.8,3.4c-1.3,1.2-2.7,2.1-4.3,2.7c-1.6,0.6-3.4,0.9-5.5,0.9
		c-2,0-3.7-0.3-5.1-0.9c-1.4-0.6-2.3-1.4-2.9-2.4s-0.8-2.2-0.8-3.4c0-1.2,0.4-3,1.1-5.4l2.8-9.2c0.8-2.8,1.9-5,3.1-6.6
		s2.8-2.8,4.8-3.7c2-0.9,4.1-1.3,6.3-1.3c2.7,0,4.8,0.5,6.2,1.5c1.4,1,2.3,2.4,2.5,4.1c0.2,1.7-0.2,4.1-1.1,7.2L-186.6,319.3z
		 M-194.7,314.1l0.7-2.3c0.5-1.6,0.7-2.7,0.7-3.2s-0.3-0.7-0.9-0.7c-0.7,0-1.1,0.2-1.4,0.6s-0.7,1.5-1.2,3.3l-0.7,2.3
		C-197.5,314.1-194.7,314.1-194.7,314.1z"/>
	<path class="st0" d="M-162.5,319.3H-175l-2.1,6.9c-0.4,1.4-0.6,2.4-0.5,2.8c0.1,0.4,0.4,0.6,1,0.6c0.7,0,1.3-0.3,1.7-0.8
		s0.9-1.6,1.3-3.2l1.3-4.2h9.2l-0.7,2.3c-0.6,2-1.2,3.5-1.7,4.5c-0.6,1.1-1.5,2.2-2.8,3.4c-1.3,1.2-2.7,2.1-4.3,2.7
		c-1.6,0.6-3.4,0.9-5.5,0.9c-2,0-3.7-0.3-5.1-0.9c-1.4-0.6-2.3-1.4-2.9-2.4c-0.6-1-0.8-2.2-0.8-3.4c0-1.2,0.4-3,1.1-5.4l2.8-9.2
		c0.8-2.8,1.9-5,3.1-6.6c1.2-1.6,2.8-2.8,4.8-3.7c2-0.9,4.1-1.3,6.3-1.3c2.7,0,4.8,0.5,6.2,1.5c1.4,1,2.3,2.4,2.5,4.1
		c0.2,1.7-0.2,4.1-1.1,7.2L-162.5,319.3z M-170.6,314.1l0.7-2.3c0.5-1.6,0.7-2.7,0.7-3.2s-0.3-0.7-0.9-0.7c-0.7,0-1.1,0.2-1.4,0.6
		c-0.3,0.4-0.7,1.5-1.2,3.3l-0.7,2.3C-173.4,314.1-170.6,314.1-170.6,314.1z"/>
	<path class="st0" d="M-143.3,295.9l-11.8,38.7h-9.9l11.8-38.7H-143.3z"/>
	<path class="st1" d="M-139.5,295.9h10c3.2,0,5.5,0.2,7,0.7s2.5,1.5,3,3s0.3,3.9-0.7,7.3c-0.7,2.3-1.5,3.8-2.5,4.7
		c-1,0.9-2.6,1.6-4.8,2.1c2.2,0.5,3.5,1.4,3.9,2.6c0.5,1.2,0.3,3.1-0.5,5.6l-1.1,3.6c-0.8,2.6-1.7,4.6-2.7,5.8
		c-1,1.3-2.2,2.1-3.6,2.6c-1.4,0.5-4.2,0.7-8.2,0.7h-11.6L-139.5,295.9z M-135.9,317.1l-3.3,10.8c1.4,0,2.4-0.3,2.9-0.7
		c0.5-0.4,1-1.4,1.5-2.9l1.1-3.6c0.5-1.7,0.6-2.7,0.4-3C-133.6,317.4-134.4,317.2-135.9,317.1z M-131.5,302.5l-2.6,8.6
		c0.4,0,0.8,0,1,0c1,0,1.7-0.2,2.1-0.7c0.4-0.5,1-1.9,1.7-4.2c0.4-1.2,0.5-2.1,0.4-2.5s-0.3-0.8-0.6-0.9
		C-129.8,302.6-130.4,302.5-131.5,302.5z"/>
	<path class="st1" d="M-111,315.1h-9l0.6-2.1c0.7-2.5,1.6-4.3,2.6-5.7c1-1.3,2.5-2.5,4.5-3.5s4.4-1.5,7.1-1.5c3.3,0,5.6,0.6,6.9,1.7
		c1.3,1.2,1.9,2.6,1.7,4.3c-0.2,1.7-1.1,5.1-2.7,10.4l-4.9,15.9h-9.4l0.9-2.8c-0.9,1.1-2,2-3.1,2.6s-2.3,0.8-3.6,0.8
		c-1.7,0-3.1-0.5-4.2-1.4c-1.1-0.9-1.2-3-0.2-6.2l0.8-2.7c0.7-2.4,1.6-4,2.6-4.9c1-0.9,3.2-1.9,6.5-3c3.5-1.2,5.5-2.1,5.9-2.5
		c0.4-0.4,0.7-1.3,1.1-2.6c0.5-1.7,0.7-2.7,0.6-3.2c-0.1-0.5-0.4-0.8-1-0.8c-0.7,0-1.1,0.2-1.4,0.6c-0.3,0.4-0.7,1.5-1.2,3.3
		L-111,315.1z M-109.3,319.5c-1.9,1.1-3.1,2.1-3.6,2.8c-0.5,0.8-0.9,1.9-1.4,3.3c-0.5,1.6-0.7,2.7-0.6,3.2c0.1,0.5,0.4,0.7,1.1,0.7
		c0.6,0,1.1-0.2,1.4-0.6c0.3-0.4,0.7-1.4,1.2-3L-109.3,319.5z"/>
	<path class="st1" d="M-81.3,302.8l-9.7,31.7h-9.9l9.7-31.7C-91.2,302.8-81.3,302.8-81.3,302.8z M-79.1,295.9l-1.5,5h-9.9l1.5-5
		H-79.1z"/>
	<path class="st1" d="M-66.3,298.6l-1.5,5h2.6l-1.5,5h-2.6l-5.2,17c-0.6,2.1-0.9,3.3-0.7,3.5c0.1,0.2,1,0.4,2.6,0.4l-1.6,5.1h-3.9
		c-2.2,0-3.7-0.1-4.6-0.3c-0.9-0.2-1.6-0.6-2.1-1.3s-0.7-1.4-0.6-2.3c0.1-0.9,0.6-2.9,1.6-6l4.9-16.1H-81l1.5-5h2.1l1.5-5
		C-75.9,298.6-66.3,298.6-66.3,298.6z"/>
	<path class="st0" d="M-219.8,280.9c0.2,0.6,0.5,1.2,0.7,1.8c1,3-1.8,7-5.6,6c-2.2-0.6-2.4-0.5-3,1.6c-1.8,5.5-3.5,11.1-5.2,16.6
		c-1.7,5.6-3.3,11.2-6.4,16.3c-2.7,4.4-5.9,8.6-10.7,11.1c-8.5,4.4-18.4-1-18.8-10.2c-0.2-3.7,1.2-6.9,3.2-9.9
		c3.4-5,6.9-9.9,10.3-14.8c1-1.5,1.9-3,2.8-4.5c0.1,0,0.2,0.1,0.4,0.1c-1.4,7.1-2.8,14.2-4.2,21.3c-0.1,0-0.2,0-0.4,0
		c-0.8-1.7-1.6-3.3-2.4-5c-0.2,0-0.4,0-0.6,0.1c-2.4,3.4-5.1,6.6-4.9,11.1c0.2,5.9,6.2,10,11.7,8c4.9-1.8,8.1-5.4,10.5-9.9
		c4.4-8.3,6.8-17.3,9.8-26.1c1.3-3.8,2.5-7.6,4-11.3c1.6-3.9,3.4-4.6,7.3-3.4C-220.7,280.1-220.2,280.5-219.8,280.9z M-224.9,285.4
		c0.9,0.6,1.9,0.6,2.6-0.3c0.7-0.9,0.7-1.8-0.2-2.6c-0.9-0.8-1.8-0.7-2.6,0.2C-225.8,283.7-225.6,284.6-224.9,285.4z"/>
</g>
</svg>
