<?xml version="1.0" encoding="utf-8"?>
<!-- Generator: Adobe Illustrator 19.1.0, SVG Export Plug-In . SVG Version: 6.00 Build 0)  -->
<svg version="1.1" id="Layer_1" xmlns="http://www.w3.org/2000/svg" xmlns:xlink="http://www.w3.org/1999/xlink" x="0px" y="0px"
	 viewBox="-281 267.9 227.7 78.1" style="enable-background:new -281 267.9 227.7 78.1;" xml:space="preserve">
<style type="text/css">
	.st0{fill:#3E4044;}
	.st1{fill:#838C52;stroke:#3E4044;stroke-width:0.75;stroke-miterlimit:10;}
</style>
<g>
	<path class="st0" d="M-258.2,295.6h7c4.7,0,7.8,0.2,9.3,0.5c1.5,0.4,2.6,1.3,3.2,2.8c0.6,1.5,0.4,3.8-0.6,7.1c-0.9,3-1.9,4.9-2.9,6
		c-1,1-2.7,1.6-4.9,1.8c1.8,0.5,2.9,1.1,3.3,1.9c0.4,0.8,0.6,1.6,0.6,2.2c0,0.7-0.5,2.6-1.5,5.6l-3.1,10h-9.2l4-12.6
		c0.6-2,0.8-3.3,0.7-3.8c-0.1-0.5-0.9-0.7-2.3-0.7l-5.2,17.1h-9.9L-258.2,295.6z M-250.3,302.1l-2.6,8.4c1.1,0,1.9-0.2,2.5-0.5
		c0.5-0.3,1.1-1.3,1.6-3l0.6-2.1c0.4-1.2,0.4-2,0.1-2.4C-248.4,302.2-249.1,302.1-250.3,302.1z"/>
	<path class="st0" d="M-219.1,318.5h-12.3l-2.1,6.7c-0.4,1.4-0.6,2.3-0.5,2.7s0.4,0.6,1,0.6c0.7,0,1.3-0.3,1.7-0.8
		c0.4-0.5,0.8-1.6,1.3-3.1l1.3-4.1h9l-0.7,2.3c-0.6,1.9-1.2,3.4-1.7,4.4c-0.6,1-1.5,2.1-2.7,3.3s-2.6,2.1-4.2,2.6
		c-1.5,0.6-3.4,0.9-5.4,0.9s-3.7-0.3-5-0.9c-1.4-0.6-2.3-1.4-2.8-2.4s-0.8-2.1-0.8-3.3c0-1.2,0.4-3,1.1-5.3l2.8-9.1
		c0.8-2.7,1.9-4.9,3.1-6.4c1.2-1.6,2.8-2.8,4.7-3.6c1.9-0.8,4-1.3,6.1-1.3c2.7,0,4.7,0.5,6.1,1.5s2.2,2.3,2.4,4c0.2,1.7-0.2,4-1.1,7
		L-219.1,318.5z M-227.1,313.4l0.7-2.3c0.5-1.6,0.7-2.6,0.7-3.1s-0.3-0.7-0.8-0.7c-0.7,0-1.1,0.2-1.4,0.6s-0.7,1.5-1.2,3.2l-0.7,2.3
		H-227.1z"/>
	<path class="st0" d="M-195.5,318.5h-12.3l-2.1,6.7c-0.4,1.4-0.6,2.3-0.5,2.7c0.1,0.4,0.4,0.6,1,0.6c0.7,0,1.3-0.3,1.7-0.8
		s0.8-1.6,1.3-3.1l1.3-4.1h9l-0.7,2.3c-0.6,1.9-1.2,3.4-1.7,4.4c-0.6,1-1.5,2.1-2.7,3.3c-1.2,1.2-2.6,2.1-4.2,2.6
		c-1.5,0.6-3.4,0.9-5.4,0.9s-3.7-0.3-5-0.9c-1.4-0.6-2.3-1.4-2.8-2.4s-0.8-2.1-0.8-3.3c0-1.2,0.4-3,1.1-5.3l2.8-9.1
		c0.8-2.7,1.9-4.9,3.1-6.4c1.2-1.6,2.8-2.8,4.7-3.6s4-1.3,6.1-1.3c2.7,0,4.7,0.5,6.1,1.5c1.4,1,2.2,2.3,2.4,4c0.2,1.7-0.2,4-1.1,7
		L-195.5,318.5z M-203.5,313.4l0.7-2.3c0.5-1.6,0.7-2.6,0.7-3.1s-0.3-0.7-0.8-0.7c-0.7,0-1.1,0.2-1.4,0.6c-0.3,0.4-0.7,1.5-1.2,3.2
		l-0.7,2.3H-203.5z"/>
	<path class="st0" d="M-176.6,295.6l-11.6,37.9h-9.8l11.6-37.9C-186.4,295.6-176.6,295.6-176.6,295.6z"/>
	<path class="st1" d="M-137.4,295.6h9.8c3.1,0,5.4,0.2,6.8,0.7c1.5,0.5,2.4,1.5,3,2.9c0.6,1.4,0.3,3.9-0.7,7.1
		c-0.7,2.2-1.5,3.8-2.5,4.6c-1,0.9-2.5,1.5-4.7,2c2.1,0.5,3.4,1.4,3.9,2.6c0.4,1.2,0.3,3-0.5,5.5l-1.1,3.5c-0.8,2.6-1.7,4.5-2.6,5.7
		c-1,1.2-2.2,2.1-3.6,2.5c-1.4,0.5-4.1,0.7-8.1,0.7H-149L-137.4,295.6z M-133.9,316.4l-3.2,10.6c1.4,0,2.4-0.3,2.9-0.7
		s1-1.4,1.5-2.9l1.1-3.5c0.5-1.6,0.6-2.6,0.4-3C-131.6,316.6-132.4,316.4-133.9,316.4z M-129.5,302.1l-2.6,8.4c0.4,0,0.8,0,1,0
		c1,0,1.7-0.2,2.1-0.7s1-1.8,1.6-4.1c0.4-1.2,0.5-2,0.4-2.5s-0.3-0.8-0.6-0.9S-128.5,302.1-129.5,302.1z"/>
	<path class="st1" d="M-109.4,314.5h-8.9l0.6-2.1c0.7-2.4,1.6-4.3,2.5-5.6c1-1.3,2.4-2.5,4.4-3.5s4.3-1.5,7-1.5
		c3.2,0,5.4,0.6,6.7,1.7s1.8,2.5,1.7,4.2c-0.1,1.7-1,5-2.6,10.2l-4.8,15.6h-9.2l0.8-2.8c-0.9,1.1-1.9,1.9-3,2.5
		c-1.1,0.6-2.3,0.8-3.5,0.8c-1.7,0-3-0.5-4.1-1.4s-1.2-3-0.2-6.1l0.8-2.6c0.7-2.3,1.6-3.9,2.6-4.8c1-0.8,3.1-1.8,6.4-3
		c3.5-1.2,5.4-2,5.7-2.5c0.3-0.4,0.7-1.3,1.1-2.6c0.5-1.6,0.7-2.7,0.6-3.2s-0.4-0.7-1-0.7s-1.1,0.2-1.4,0.6
		c-0.3,0.4-0.7,1.5-1.2,3.2L-109.4,314.5z M-107.7,318.7c-1.9,1.1-3,2-3.5,2.8c-0.5,0.8-0.9,1.8-1.4,3.2c-0.5,1.6-0.7,2.6-0.6,3.1
		s0.4,0.7,1,0.7s1-0.2,1.3-0.6s0.7-1.3,1.2-2.9L-107.7,318.7z"/>
	<path class="st1" d="M-80.3,302.4l-9.5,31.1h-9.8l9.5-31.1H-80.3z M-78.2,295.6l-1.5,4.9h-9.8l1.5-4.9
		C-88,295.6-78.2,295.6-78.2,295.6z"/>
	<path class="st1" d="M-65.6,298.3l-1.5,4.9h2.6l-1.5,4.9h-2.6l-5.1,16.6c-0.6,2-0.9,3.2-0.7,3.4c0.1,0.2,1,0.4,2.5,0.4l-1.5,5h-3.8
		c-2.2,0-3.7-0.1-4.5-0.3c-0.9-0.2-1.6-0.6-2.1-1.2s-0.7-1.4-0.6-2.2c0.1-0.8,0.6-2.8,1.5-5.9l4.8-15.8h-2l1.5-4.9h2l1.5-4.9
		C-75.1,298.3-65.6,298.3-65.6,298.3z"/>
	<path class="st1" d="M-132.2,280.9c0.2,0.6,0.5,1.2,0.7,1.8c1,2.9-1.8,6.9-5.5,5.9c-2.1-0.6-2.3-0.5-3,1.5
		c-1.8,5.4-3.5,10.8-5.1,16.3c-1.7,5.5-3.3,11-6.2,16c-2.6,4.4-5.8,8.5-10.4,10.9c-8.3,4.3-18-1-18.4-10c-0.1-3.6,1.2-6.8,3.1-9.7
		c3.3-4.9,6.8-9.7,10.1-14.5c1-1.4,1.9-2.9,2.8-4.4c0.1,0,0.2,0.1,0.3,0.1c-1.4,6.9-2.8,13.9-4.1,20.8c-0.1,0-0.2,0-0.4,0
		c-0.8-1.6-1.6-3.3-2.4-4.9c-0.2,0-0.4,0-0.5,0.1c-2.3,3.3-5,6.5-4.8,10.9c0.2,5.8,6.1,9.8,11.5,7.9c4.8-1.7,8-5.3,10.2-9.7
		c4.3-8.1,6.7-17,9.6-25.6c1.3-3.7,2.5-7.5,4-11.1c1.6-3.8,3.3-4.5,7.2-3.3C-133.1,280.1-132.6,280.5-132.2,280.9z M-137.2,285.3
		c0.9,0.6,1.8,0.6,2.5-0.2c0.7-0.8,0.7-1.8-0.2-2.5c-0.9-0.8-1.8-0.7-2.5,0.2C-138.1,283.6-137.9,284.5-137.2,285.3z"/>
</g>
</svg>
