<?xml version="1.0" encoding="utf-8"?>
<!-- Generator: Adobe Illustrator 19.1.0, SVG Export Plug-In . SVG Version: 6.00 Build 0)  -->
<svg version="1.1" id="Layer_1" xmlns="http://www.w3.org/2000/svg" xmlns:xlink="http://www.w3.org/1999/xlink" x="0px" y="0px"
	 viewBox="0 0 227.7 78.1" style="enable-background:new 0 0 227.7 78.1;" xml:space="preserve">
<style type="text/css">
	.st0{fill:#231F20;}
</style>
<g>
	<path class="st0" d="M54.6,28h7.1c4.7,0,7.9,0.2,9.5,0.5c1.6,0.4,2.7,1.3,3.3,2.8c0.6,1.5,0.4,3.9-0.6,7.2c-0.9,3-1.9,5-3,6.1
		c-1.1,1-2.7,1.7-5,1.9c1.8,0.5,3,1.2,3.4,2c0.4,0.8,0.6,1.6,0.6,2.3c0,0.7-0.5,2.6-1.5,5.7l-3.1,10.2h-9.3l3.9-12.9
		c0.6-2.1,0.9-3.4,0.7-3.8c-0.2-0.5-1-0.7-2.3-0.7l-5.3,17.4H42.8L54.6,28z M62.7,34.6L60,43.2c1.1,0,2-0.2,2.5-0.5
		c0.5-0.3,1.1-1.3,1.6-3l0.6-2.1c0.4-1.2,0.4-2,0.1-2.4C64.6,34.8,63.8,34.6,62.7,34.6z"/>
	<path class="st0" d="M94.4,51.4H81.9l-2.1,6.9c-0.4,1.4-0.6,2.4-0.5,2.8s0.4,0.6,1,0.6c0.7,0,1.3-0.3,1.7-0.8
		c0.4-0.5,0.9-1.6,1.3-3.2l1.3-4.2h9.2l-0.7,2.3c-0.6,2-1.2,3.5-1.7,4.5c-0.6,1.1-1.5,2.2-2.8,3.4s-2.7,2.1-4.3,2.7
		c-1.6,0.6-3.4,0.9-5.5,0.9c-2,0-3.7-0.3-5.1-0.9c-1.4-0.6-2.3-1.4-2.9-2.4c-0.6-1-0.8-2.2-0.8-3.4s0.4-3,1.1-5.4l2.8-9.2
		c0.8-2.8,1.9-5,3.1-6.6c1.2-1.6,2.8-2.8,4.8-3.7c2-0.9,4.1-1.3,6.3-1.3c2.7,0,4.8,0.5,6.2,1.5c1.4,1,2.3,2.4,2.5,4.1
		c0.2,1.7-0.2,4.1-1.1,7.2L94.4,51.4z M86.3,46.2l0.7-2.3c0.5-1.6,0.7-2.7,0.7-3.2c0-0.5-0.3-0.7-0.9-0.7c-0.7,0-1.1,0.2-1.4,0.6
		c-0.3,0.4-0.7,1.5-1.2,3.3l-0.7,2.3H86.3z"/>
	<path class="st0" d="M118.5,51.4H106l-2.1,6.9c-0.4,1.4-0.6,2.4-0.5,2.8s0.4,0.6,1,0.6c0.7,0,1.3-0.3,1.7-0.8
		c0.4-0.5,0.9-1.6,1.3-3.2l1.3-4.2h9.2l-0.7,2.3c-0.6,2-1.2,3.5-1.7,4.5c-0.6,1.1-1.5,2.2-2.8,3.4c-1.3,1.2-2.7,2.1-4.3,2.7
		c-1.6,0.6-3.4,0.9-5.5,0.9c-2,0-3.7-0.3-5.1-0.9c-1.4-0.6-2.3-1.4-2.9-2.4c-0.6-1-0.8-2.2-0.8-3.4s0.4-3,1.1-5.4l2.8-9.2
		c0.8-2.8,1.9-5,3.1-6.6c1.2-1.6,2.8-2.8,4.8-3.7c2-0.9,4.1-1.3,6.3-1.3c2.7,0,4.8,0.5,6.2,1.5c1.4,1,2.3,2.4,2.5,4.1
		c0.2,1.7-0.2,4.1-1.1,7.2L118.5,51.4z M110.4,46.2l0.7-2.3c0.5-1.6,0.7-2.7,0.7-3.2c0-0.5-0.3-0.7-0.9-0.7c-0.7,0-1.1,0.2-1.4,0.6
		c-0.3,0.4-0.7,1.5-1.2,3.3l-0.7,2.3H110.4z"/>
	<path class="st0" d="M137.7,28l-11.8,38.7H116L127.8,28H137.7z"/>
	<path class="st0" d="M141.5,28h10c3.2,0,5.5,0.2,7,0.7c1.5,0.5,2.5,1.5,3,3c0.5,1.5,0.3,3.9-0.7,7.3c-0.7,2.3-1.5,3.8-2.5,4.7
		c-1,0.9-2.6,1.6-4.8,2.1c2.2,0.5,3.5,1.4,3.9,2.6c0.5,1.2,0.3,3.1-0.5,5.6l-1.1,3.6c-0.8,2.6-1.7,4.6-2.7,5.8
		c-1,1.3-2.2,2.1-3.6,2.6c-1.4,0.5-4.2,0.7-8.2,0.7h-11.6L141.5,28z M145.1,49.2L141.8,60c1.4,0,2.4-0.3,2.9-0.7
		c0.5-0.4,1-1.4,1.5-2.9l1.1-3.6c0.5-1.7,0.6-2.7,0.4-3C147.4,49.5,146.6,49.3,145.1,49.2z M149.5,34.6l-2.6,8.6c0.4,0,0.8,0,1,0
		c1,0,1.7-0.2,2.1-0.7c0.4-0.5,1-1.9,1.7-4.2c0.4-1.2,0.5-2.1,0.4-2.5s-0.3-0.8-0.6-0.9C151.2,34.7,150.6,34.6,149.5,34.6z"/>
	<path class="st0" d="M170,47.2H161l0.6-2.1c0.7-2.5,1.6-4.3,2.6-5.7c1-1.3,2.5-2.5,4.5-3.5c2-1,4.4-1.5,7.1-1.5
		c3.3,0,5.6,0.6,6.9,1.7c1.3,1.2,1.9,2.6,1.7,4.3s-1.1,5.1-2.7,10.4l-4.9,15.9h-9.4l0.9-2.8c-0.9,1.1-2,2-3.1,2.6
		c-1.1,0.6-2.3,0.8-3.6,0.8c-1.7,0-3.1-0.5-4.2-1.4c-1.1-0.9-1.2-3-0.2-6.2L158,57c0.7-2.4,1.6-4,2.6-4.9c1-0.9,3.2-1.9,6.5-3
		c3.5-1.2,5.5-2.1,5.9-2.5c0.4-0.4,0.7-1.3,1.1-2.6c0.5-1.7,0.7-2.7,0.6-3.2c-0.1-0.5-0.4-0.8-1-0.8c-0.7,0-1.1,0.2-1.4,0.6
		c-0.3,0.4-0.7,1.5-1.2,3.3L170,47.2z M171.7,51.6c-1.9,1.1-3.1,2.1-3.6,2.8c-0.5,0.8-0.9,1.9-1.4,3.3c-0.5,1.6-0.7,2.7-0.6,3.2
		c0.1,0.5,0.4,0.7,1.1,0.7c0.6,0,1.1-0.2,1.4-0.6c0.3-0.4,0.7-1.4,1.2-3L171.7,51.6z"/>
	<path class="st0" d="M199.7,34.9l-9.7,31.7h-9.9l9.7-31.7H199.7z M201.9,28l-1.5,5h-9.9l1.5-5H201.9z"/>
	<path class="st0" d="M214.7,30.7l-1.5,5h2.6l-1.5,5h-2.6l-5.2,17c-0.6,2.1-0.9,3.3-0.7,3.5c0.1,0.2,1,0.4,2.6,0.4l-1.6,5.1h-3.9
		c-2.2,0-3.7-0.1-4.6-0.3c-0.9-0.2-1.6-0.6-2.1-1.3c-0.5-0.7-0.7-1.4-0.6-2.3c0.1-0.9,0.6-2.9,1.6-6l4.9-16.1h-2.1l1.5-5h2.1l1.5-5
		H214.7z"/>
	<path class="st0" d="M61.2,13c0.2,0.6,0.5,1.2,0.7,1.8c1,3-1.8,7-5.6,6c-2.2-0.6-2.4-0.5-3,1.6c-1.8,5.5-3.5,11.1-5.2,16.6
		c-1.7,5.6-3.3,11.2-6.4,16.3C39,59.7,35.8,63.9,31,66.4c-8.5,4.4-18.4-1-18.8-10.2c-0.2-3.7,1.2-6.9,3.2-9.9
		c3.4-5,6.9-9.9,10.3-14.8c1-1.5,1.9-3,2.8-4.5c0.1,0,0.2,0.1,0.4,0.1c-1.4,7.1-2.8,14.2-4.2,21.3c-0.1,0-0.2,0-0.4,0
		c-0.8-1.7-1.6-3.3-2.4-5c-0.2,0-0.4,0-0.6,0.1c-2.4,3.4-5.1,6.6-4.9,11.1c0.2,5.9,6.2,10,11.7,8c4.9-1.8,8.1-5.4,10.5-9.9
		c4.4-8.3,6.8-17.3,9.8-26.1c1.3-3.8,2.5-7.6,4-11.3c1.6-3.9,3.4-4.6,7.3-3.4C60.3,12.2,60.8,12.6,61.2,13z M56.1,17.5
		c0.9,0.6,1.9,0.6,2.6-0.3c0.7-0.9,0.7-1.8-0.2-2.6c-0.9-0.8-1.8-0.7-2.6,0.2C55.2,15.8,55.4,16.7,56.1,17.5z"/>
</g>
</svg>
