<?xml version="1.0" encoding="utf-8"?>
<!-- Generator: Adobe Illustrator 19.1.0, SVG Export Plug-In . SVG Version: 6.00 Build 0)  -->
<svg version="1.1" id="Layer_1" xmlns="http://www.w3.org/2000/svg" xmlns:xlink="http://www.w3.org/1999/xlink" x="0px" y="0px"
	 viewBox="-305 245.7 180.2 122.3" style="enable-background:new -305 245.7 180.2 122.3;" xml:space="preserve">
<style type="text/css">
	.st0{fill:#3E4044;}
	.st1{fill:#838C52;stroke:#3E4044;stroke-width:0.75;stroke-miterlimit:10;}
</style>
<g>
	<path class="st0" d="M-217.6,278.5h7c4.7,0,7.8,0.2,9.3,0.5c1.5,0.4,2.6,1.3,3.2,2.8c0.6,1.5,0.4,3.8-0.6,7.1c-0.9,3-1.9,4.9-2.9,6
		c-1,1-2.7,1.6-4.9,1.8c1.8,0.5,2.9,1.1,3.3,1.9c0.4,0.8,0.6,1.6,0.6,2.2c0,0.7-0.5,2.6-1.5,5.6l-3.1,10h-9.2l3.8-12.6
		c0.6-2,0.8-3.3,0.7-3.8s-0.9-0.7-2.3-0.7l-5.2,17.1h-9.9L-217.6,278.5z M-209.7,285l-2.6,8.4c1.1,0,1.9-0.2,2.5-0.5
		c0.5-0.3,1.1-1.3,1.6-3l0.6-2.1c0.4-1.2,0.4-2,0.1-2.4C-207.8,285.2-208.5,285-209.7,285z"/>
	<path class="st0" d="M-178.5,301.4h-12.3l-2.1,6.7c-0.4,1.4-0.6,2.3-0.5,2.7c0.1,0.4,0.4,0.6,1,0.6c0.7,0,1.3-0.3,1.7-0.8
		s0.8-1.6,1.3-3.1l1.3-4.1h9l-0.7,2.3c-0.6,1.9-1.2,3.4-1.7,4.4c-0.6,1-1.5,2.1-2.7,3.3c-1.2,1.2-2.6,2.1-4.2,2.6
		c-1.5,0.6-3.4,0.9-5.4,0.9s-3.7-0.3-5-0.9c-1.4-0.6-2.3-1.4-2.8-2.4s-0.8-2.1-0.8-3.3s0.4-3,1.1-5.3l2.8-9.1
		c0.8-2.7,1.9-4.9,3.1-6.4c1.2-1.6,2.8-2.8,4.7-3.6c1.9-0.8,4-1.3,6.1-1.3c2.7,0,4.7,0.5,6.1,1.5s2.2,2.3,2.4,4c0.2,1.7-0.2,4-1.1,7
		L-178.5,301.4z M-186.4,296.4l0.7-2.3c0.5-1.6,0.7-2.6,0.7-3.1s-0.3-0.7-0.8-0.7c-0.7,0-1.1,0.2-1.4,0.6s-0.7,1.5-1.2,3.2l-0.7,2.3
		H-186.4z"/>
	<path class="st0" d="M-154.9,301.4h-12.3l-2.1,6.7c-0.4,1.4-0.6,2.3-0.5,2.7s0.4,0.6,1,0.6c0.7,0,1.3-0.3,1.7-0.8s0.8-1.6,1.3-3.1
		l1.3-4.1h9l-0.7,2.3c-0.6,1.9-1.2,3.4-1.7,4.4c-0.6,1-1.5,2.1-2.7,3.3s-2.6,2.1-4.2,2.6c-1.5,0.6-3.4,0.9-5.4,0.9s-3.7-0.3-5-0.9
		c-1.4-0.6-2.3-1.4-2.8-2.4s-0.8-2.1-0.8-3.3s0.4-3,1.1-5.3l2.8-9.1c0.8-2.7,1.9-4.9,3.1-6.4c1.2-1.6,2.8-2.8,4.7-3.6
		c1.9-0.8,4-1.3,6.1-1.3c2.7,0,4.7,0.5,6.1,1.5c1.4,1,2.2,2.3,2.4,4c0.2,1.7-0.2,4-1.1,7L-154.9,301.4z M-162.9,296.4l0.7-2.3
		c0.5-1.6,0.7-2.6,0.7-3.1s-0.3-0.7-0.8-0.7c-0.7,0-1.1,0.2-1.4,0.6s-0.7,1.5-1.2,3.2l-0.7,2.3H-162.9z"/>
	<path class="st0" d="M-136,278.5l-11.6,37.9h-9.8l11.6-37.9C-145.8,278.5-136,278.5-136,278.5z"/>
	<path class="st1" d="M-229.7,318.8h9.8c3.1,0,5.4,0.2,6.8,0.7c1.5,0.5,2.4,1.5,3,2.9s0.3,3.9-0.7,7.1c-0.7,2.2-1.5,3.8-2.5,4.6
		c-1,0.9-2.5,1.5-4.7,2c2.1,0.5,3.4,1.4,3.9,2.6c0.4,1.2,0.3,3-0.5,5.5l-1.1,3.5c-0.8,2.6-1.7,4.5-2.6,5.7c-1,1.2-2.2,2.1-3.6,2.5
		c-1.4,0.5-4.1,0.7-8.1,0.7h-11.3L-229.7,318.8z M-226.2,339.6l-3.2,10.6c1.4,0,2.4-0.3,2.9-0.7s1-1.4,1.5-2.9l1.1-3.5
		c0.5-1.6,0.6-2.6,0.4-3C-223.9,339.9-224.7,339.7-226.2,339.6z M-221.8,325.3l-2.6,8.4c0.4,0,0.8,0,1,0c1,0,1.7-0.2,2.1-0.7
		s1-1.8,1.6-4.1c0.4-1.2,0.5-2,0.4-2.5s-0.3-0.8-0.6-0.9C-220.2,325.4-220.8,325.3-221.8,325.3z"/>
	<path class="st1" d="M-201.7,337.7h-8.9l0.6-2.1c0.7-2.4,1.6-4.3,2.5-5.6c1-1.3,2.4-2.5,4.4-3.5s4.3-1.5,7-1.5
		c3.2,0,5.4,0.6,6.7,1.7c1.3,1.1,1.8,2.5,1.7,4.2s-1,5-2.6,10.2l-4.8,15.6h-9.2l0.8-2.8c-0.9,1.1-1.9,1.9-3,2.5s-2.3,0.8-3.5,0.8
		c-1.7,0-3-0.5-4.1-1.4c-1.1-0.9-1.2-3-0.2-6.1l0.8-2.6c0.7-2.3,1.6-3.9,2.6-4.8c1-0.8,3.1-1.8,6.4-3c3.5-1.2,5.4-2,5.7-2.5
		c0.3-0.4,0.7-1.3,1.1-2.6c0.5-1.6,0.7-2.7,0.6-3.2c-0.1-0.5-0.4-0.7-1-0.7c-0.6,0-1.1,0.2-1.4,0.6s-0.7,1.5-1.2,3.2L-201.7,337.7z
		 M-200,342c-1.9,1.1-3,2-3.5,2.8c-0.5,0.8-0.9,1.8-1.4,3.2c-0.5,1.6-0.7,2.6-0.6,3.1s0.4,0.7,1,0.7s1-0.2,1.3-0.6
		c0.3-0.4,0.7-1.3,1.2-2.9L-200,342z"/>
	<path class="st1" d="M-172.6,325.7l-9.5,31.1h-9.8l9.5-31.1H-172.6z M-170.5,318.8l-1.5,4.9h-9.7l1.5-4.9H-170.5z"/>
	<path class="st1" d="M-157.9,321.5l-1.5,4.9h2.6l-1.5,4.9h-2.6l-5.1,16.6c-0.6,2-0.9,3.2-0.7,3.4c0.1,0.2,1,0.4,2.5,0.4l-1.5,5
		h-3.8c-2.2,0-3.7-0.1-4.5-0.3c-0.9-0.2-1.6-0.6-2.1-1.2c-0.5-0.6-0.7-1.4-0.6-2.2c0.1-0.8,0.6-2.8,1.5-5.9l4.8-15.8h-2l1.5-4.9h2
		l1.5-4.9H-157.9z"/>
	<path class="st0" d="M-207.3,259.7c0.4,1,0.8,2,1.2,3.1c1.6,5.1-3.5,12.3-10,10.7c-3.7-0.9-4-0.8-5.3,2.9
		c-3.4,9.7-6.6,19.4-9.9,29.1c-3.3,9.8-6.3,19.7-11.8,28.7c-4.9,8-10.5,15.3-18.9,19.9c-14.8,8.1-31.5-0.8-31.7-16.8
		c-0.1-6.4,2.4-12.1,6-17.3c6.1-8.8,12.4-17.5,18.5-26.3c1.8-2.6,3.4-5.3,5.1-7.9c0.2,0.1,0.4,0.1,0.6,0.2
		c-2.8,12.4-5.6,24.8-8.4,37.2c-0.2,0-0.4,0-0.6,0c-1.3-2.9-2.6-5.7-4-8.6c-0.3,0-0.6,0.1-1,0.1c-4.2,6-9,11.8-9.1,19.6
		c0,10.2,10.1,17.1,19.7,13.3c8.5-3.3,14.3-9.9,18.5-17.7c8-14.6,12.7-30.5,18.3-45.9c2.4-6.7,4.7-13.4,7.6-19.9
		c3-6.9,6-8.1,12.8-6.3C-208.9,258.4-208.1,259-207.3,259.7z M-216.3,267.9c1.6,1,3.2,1,4.5-0.6c1.3-1.5,1.3-3.2-0.2-4.5
		c-1.5-1.3-3.1-1.1-4.4,0.5C-217.8,264.9-217.5,266.4-216.3,267.9z"/>
</g>
</svg>
